#Comment line ignore any data following # character 
#Hierarchical Translation and Rotation (.htr) file 
[Header]	
#Header keywords are followed by a single value 
FileType HTR		#Single word string
DataType HTRS		#Translation followed by rotation and scale data
FileVersion 1		#integer
NumSegments 84		#integer
NumFrames 2		#integer
DataFrameRate 30		#integer, data frame rate in this file
EulerRotationOrder ZYX
CalibrationUnits mm
RotationUnits Degrees
GlobalAxisofGravity Y
BoneLengthAxis Y
ScaleFactor 1.00
[SegmentNames&Hierarchy]
#CHILD	PARENT
MASTER GLOBAL
root MASTER
chest root
L_mid_tent01 root
R_mid_tent01 root
spine01 root
Bip01_Neck chest
L_humerus chest
R_humerus chest
weapon_bone chest
Bip01_Head Bip01_Neck
eye_left_bone Bip01_Head
eye_right_bone Bip01_Head
L_forearm L_humerus
L_front_hand L_forearm
L_weapon_bone L_forearm
L_front_hand01_01 L_front_hand
L_front_hand02_01 L_front_hand
L_front_hand03_01 L_front_hand
L_front_hand01_02 L_front_hand01_01
L_front_hand02_02 L_front_hand02_01
L_front_hand03_02 L_front_hand03_01
R_forearm R_humerus
R_front_hand R_forearm
R_weapon_bone R_forearm
R_front_hand01_01 R_front_hand
R_front_hand02_01 R_front_hand
R_front_hand03_01 R_front_hand
R_front_hand01_02 R_front_hand01_01
R_front_hand02_02 R_front_hand02_01
R_front_hand03_02 R_front_hand03_01
null_rope01_connect L_mid_tent01
Rope1_Seg01 null_rope01_connect
Rope1_Seg02 Rope1_Seg01
Rope1_Seg03 Rope1_Seg02
Rope1_Seg04 Rope1_Seg03
Rope1_Seg05 Rope1_Seg04
Rope1_Seg06 Rope1_Seg05
Rope1_Seg07 Rope1_Seg06
Rope1_Seg09 Rope1_Seg07
L_mid_hand01 Rope1_Seg09
L_mid_hand02 Rope1_Seg09
L_mid_hand03 Rope1_Seg09
null_rope02_connect R_mid_tent01
Rope2_Seg01 null_rope02_connect
Rope2_Seg02 Rope2_Seg01
Rope2_Seg03 Rope2_Seg02
Rope2_Seg04 Rope2_Seg03
Rope2_Seg05 Rope2_Seg04
Rope2_Seg06 Rope2_Seg05
Rope2_Seg07 Rope2_Seg06
Rope2_Seg09 Rope2_Seg07
R_mid_hand01 Rope2_Seg09
R_mid_hand02 Rope2_Seg09
R_mid_hand03 Rope2_Seg09
spine02 spine01
spine03 spine02
pelvis spine03
null_rope03_connect pelvis
null_rope04_connect pelvis
Rope3_Seg01 null_rope03_connect
Rope3_Seg02 Rope3_Seg01
Rope3_Seg03 Rope3_Seg02
Rope3_Seg04 Rope3_Seg03
Rope3_Seg05 Rope3_Seg04
Rope3_Seg06 Rope3_Seg05
Rope3_Seg07 Rope3_Seg06
Rope3_Seg08 Rope3_Seg07
Rope3_Seg09 Rope3_Seg08
R_rear_hand01 Rope3_Seg09
R_rear_hand02 Rope3_Seg09
R_rear_hand03 Rope3_Seg09
Rope4_Seg01 null_rope04_connect
Rope4_Seg02 Rope4_Seg01
Rope4_Seg03 Rope4_Seg02
Rope4_Seg04 Rope4_Seg03
Rope4_Seg05 Rope4_Seg04
Rope4_Seg06 Rope4_Seg05
Rope4_Seg07 Rope4_Seg06
Rope4_Seg08 Rope4_Seg07
Rope4_Seg09 Rope4_Seg08
L_rear_hand01 Rope4_Seg09
L_rear_hand02 Rope4_Seg09
L_rear_hand03 Rope4_Seg09
[BasePosition]
#SegmentName Tx, Ty, Tz, Rx, Ry, Rz, BoneLength
MASTER 0.000000 0.000000 0.000000 -90.000000 0.000000 0.000000 10.000000 
root 0.000000 0.000000 0.000000 0.000000 0.000000 0.000000 10.000000 
chest 0.000000 0.000000 0.000000 0.000000 0.000000 0.000000 10.000000 
L_mid_tent01 0.000000 0.000000 0.000000 0.000000 0.000000 0.000000 10.000000 
R_mid_tent01 0.000000 0.000000 0.000000 0.000000 0.000000 0.000000 10.000000 
spine01 0.000000 0.000000 0.000000 0.000000 0.000000 0.000000 10.000000 
Bip01_Neck 0.000000 0.000000 0.000000 0.000000 0.000000 0.000000 10.000000 
L_humerus 0.000000 0.000000 0.000000 0.000000 0.000000 0.000000 10.000000 
R_humerus 0.000000 0.000000 0.000000 0.000000 0.000000 0.000000 10.000000 
weapon_bone 0.000000 0.000000 0.000000 0.000000 0.000000 0.000000 10.000000 
Bip01_Head 0.000000 0.000000 0.000000 0.000000 0.000000 0.000000 10.000000 
eye_left_bone 0.000000 0.000000 0.000000 0.000000 0.000000 0.000000 10.000000 
eye_right_bone 0.000000 0.000000 0.000000 0.000000 0.000000 0.000000 10.000000 
L_forearm 0.000000 0.000000 0.000000 0.000000 0.000000 0.000000 10.000000 
L_front_hand 0.000000 0.000000 0.000000 0.000000 0.000000 0.000000 10.000000 
L_weapon_bone 0.000000 0.000000 0.000000 0.000000 0.000000 0.000000 10.000000 
L_front_hand01_01 0.000000 0.000000 0.000000 0.000000 0.000000 0.000000 10.000000 
L_front_hand02_01 0.000000 0.000000 0.000000 0.000000 0.000000 0.000000 10.000000 
L_front_hand03_01 0.000000 0.000000 0.000000 0.000000 0.000000 0.000000 10.000000 
L_front_hand01_02 0.000000 0.000000 0.000000 0.000000 0.000000 0.000000 10.000000 
L_front_hand02_02 0.000000 0.000000 0.000000 0.000000 0.000000 0.000000 10.000000 
L_front_hand03_02 0.000000 0.000000 0.000000 0.000000 0.000000 0.000000 10.000000 
R_forearm 0.000000 0.000000 0.000000 0.000000 0.000000 0.000000 10.000000 
R_front_hand 0.000000 0.000000 0.000000 0.000000 0.000000 0.000000 10.000000 
R_weapon_bone 0.000000 0.000000 0.000000 0.000000 0.000000 0.000000 10.000000 
R_front_hand01_01 0.000000 0.000000 0.000000 0.000000 0.000000 0.000000 10.000000 
R_front_hand02_01 0.000000 0.000000 0.000000 0.000000 0.000000 0.000000 10.000000 
R_front_hand03_01 0.000000 0.000000 0.000000 0.000000 0.000000 0.000000 10.000000 
R_front_hand01_02 0.000000 0.000000 0.000000 0.000000 0.000000 0.000000 10.000000 
R_front_hand02_02 0.000000 0.000000 0.000000 0.000000 0.000000 0.000000 10.000000 
R_front_hand03_02 0.000000 0.000000 0.000000 0.000000 0.000000 0.000000 10.000000 
null_rope01_connect 0.000000 0.000000 0.000000 0.000000 0.000000 0.000000 10.000000 
Rope1_Seg01 0.000000 0.000000 0.000000 0.000000 0.000000 0.000000 10.000000 
Rope1_Seg02 0.000000 0.000000 0.000000 0.000000 0.000000 0.000000 10.000000 
Rope1_Seg03 0.000000 0.000000 0.000000 0.000000 0.000000 0.000000 10.000000 
Rope1_Seg04 0.000000 0.000000 0.000000 0.000000 0.000000 0.000000 10.000000 
Rope1_Seg05 0.000000 0.000000 0.000000 0.000000 0.000000 0.000000 10.000000 
Rope1_Seg06 0.000000 0.000000 0.000000 0.000000 0.000000 0.000000 10.000000 
Rope1_Seg07 0.000000 0.000000 0.000000 0.000000 0.000000 0.000000 10.000000 
Rope1_Seg09 0.000000 0.000000 0.000000 0.000000 0.000000 0.000000 10.000000 
L_mid_hand01 0.000000 0.000000 0.000000 0.000000 0.000000 0.000000 10.000000 
L_mid_hand02 0.000000 0.000000 0.000000 0.000000 0.000000 0.000000 10.000000 
L_mid_hand03 0.000000 0.000000 0.000000 0.000000 0.000000 0.000000 10.000000 
null_rope02_connect 0.000000 0.000000 0.000000 0.000000 0.000000 0.000000 10.000000 
Rope2_Seg01 0.000000 0.000000 0.000000 0.000000 0.000000 0.000000 10.000000 
Rope2_Seg02 0.000000 0.000000 0.000000 0.000000 0.000000 0.000000 10.000000 
Rope2_Seg03 0.000000 0.000000 0.000000 0.000000 0.000000 0.000000 10.000000 
Rope2_Seg04 0.000000 0.000000 0.000000 0.000000 0.000000 0.000000 10.000000 
Rope2_Seg05 0.000000 0.000000 0.000000 0.000000 0.000000 0.000000 10.000000 
Rope2_Seg06 0.000000 0.000000 0.000000 0.000000 0.000000 0.000000 10.000000 
Rope2_Seg07 0.000000 0.000000 0.000000 0.000000 0.000000 0.000000 10.000000 
Rope2_Seg09 0.000000 0.000000 0.000000 0.000000 0.000000 0.000000 10.000000 
R_mid_hand01 0.000000 0.000000 0.000000 0.000000 0.000000 0.000000 10.000000 
R_mid_hand02 0.000000 0.000000 0.000000 0.000000 0.000000 0.000000 10.000000 
R_mid_hand03 0.000000 0.000000 0.000000 0.000000 0.000000 0.000000 10.000000 
spine02 0.000000 0.000000 0.000000 0.000000 0.000000 0.000000 10.000000 
spine03 0.000000 0.000000 0.000000 0.000000 0.000000 0.000000 10.000000 
pelvis 0.000000 0.000000 0.000000 0.000000 0.000000 0.000000 10.000000 
null_rope03_connect 0.000000 0.000000 0.000000 0.000000 0.000000 0.000000 10.000000 
null_rope04_connect 0.000000 0.000000 0.000000 0.000000 0.000000 0.000000 10.000000 
Rope3_Seg01 0.000000 0.000000 0.000000 0.000000 0.000000 0.000000 10.000000 
Rope3_Seg02 0.000000 0.000000 0.000000 0.000000 0.000000 0.000000 10.000000 
Rope3_Seg03 0.000000 0.000000 0.000000 0.000000 0.000000 0.000000 10.000000 
Rope3_Seg04 0.000000 0.000000 0.000000 0.000000 0.000000 0.000000 10.000000 
Rope3_Seg05 0.000000 0.000000 0.000000 0.000000 0.000000 0.000000 10.000000 
Rope3_Seg06 0.000000 0.000000 0.000000 0.000000 0.000000 0.000000 10.000000 
Rope3_Seg07 0.000000 0.000000 0.000000 0.000000 0.000000 0.000000 10.000000 
Rope3_Seg08 0.000000 0.000000 0.000000 0.000000 0.000000 0.000000 10.000000 
Rope3_Seg09 0.000000 0.000000 0.000000 0.000000 0.000000 0.000000 10.000000 
R_rear_hand01 0.000000 0.000000 0.000000 0.000000 0.000000 0.000000 10.000000 
R_rear_hand02 0.000000 0.000000 0.000000 0.000000 0.000000 0.000000 10.000000 
R_rear_hand03 0.000000 0.000000 0.000000 0.000000 0.000000 0.000000 10.000000 
Rope4_Seg01 0.000000 0.000000 0.000000 0.000000 0.000000 0.000000 10.000000 
Rope4_Seg02 0.000000 0.000000 0.000000 0.000000 0.000000 0.000000 10.000000 
Rope4_Seg03 0.000000 0.000000 0.000000 0.000000 0.000000 0.000000 10.000000 
Rope4_Seg04 0.000000 0.000000 0.000000 0.000000 0.000000 0.000000 10.000000 
Rope4_Seg05 0.000000 0.000000 0.000000 0.000000 0.000000 0.000000 10.000000 
Rope4_Seg06 0.000000 0.000000 0.000000 0.000000 0.000000 0.000000 10.000000 
Rope4_Seg07 0.000000 0.000000 0.000000 0.000000 0.000000 0.000000 10.000000 
Rope4_Seg08 0.000000 0.000000 0.000000 0.000000 0.000000 0.000000 10.000000 
Rope4_Seg09 0.000000 0.000000 0.000000 0.000000 0.000000 0.000000 10.000000 
L_rear_hand01 0.000000 0.000000 0.000000 0.000000 0.000000 0.000000 10.000000 
L_rear_hand02 0.000000 0.000000 0.000000 0.000000 0.000000 0.000000 10.000000 
L_rear_hand03 0.000000 0.000000 0.000000 0.000000 0.000000 0.000000 10.000000 
#Beginning of Data. Separated by tabs
#Fr	Tx	Ty	Tz	Rx	Ry	Rz	SF
[MASTER]
21 0.000000 0.000000 0.000000 0.001660 0.001660 0.001660 0.000000
22 0.000000 0.000000 0.000000 0.001660 0.001660 0.001660 0.000000
[root]
21 -5.976748 -14.342861 531.498718 -88.581917 -10.449947 -90.639961 531.725830
22 -2.938860 -14.345325 507.500824 -88.581917 -10.449947 -90.639961 507.712036
[chest]
21 -84.512650 -34.090519 0.000000 -3.982096 4.252581 -174.650650 91.129311
22 -84.512650 -34.090519 0.000000 -2.029112 3.785992 -179.004623 91.129311
[L_mid_tent01]
21 27.299572 22.177410 -249.918259 -37.199528 37.553146 54.644100 252.381134
22 27.299578 22.177401 -249.918259 -44.294189 38.079830 51.590454 252.381134
[R_mid_tent01]
21 23.228794 24.509907 226.238495 -144.332779 -29.070333 49.354645 228.744751
22 23.228794 24.509907 226.238495 -140.281174 -30.765202 47.045448 228.744751
[spine01]
21 -0.361383 -0.195265 0.000000 0.001845 0.001451 13.654368 0.410763
22 -0.361383 -0.195265 0.000000 0.001845 0.001451 13.654368 0.410763
[Bip01_Neck]
21 165.484543 71.581718 0.000119 176.643677 -1.657967 43.431911 180.302734
22 165.484543 71.581718 0.000119 176.643677 -1.657967 43.431911 180.302734
[L_humerus]
21 -13.983130 -135.272980 -120.471481 132.005859 60.292416 -150.152573 181.680161
22 -13.983130 -135.272980 -120.471481 130.270294 58.810722 -150.033051 181.680161
[R_humerus]
21 -13.983309 -135.273102 125.287651 -123.623528 -40.898075 -154.113556 184.909012
22 -13.983309 -135.273102 125.287651 -124.234177 -39.645260 -153.410141 184.909012
[weapon_bone]
21 235.964890 -300.705902 0.000000 0.000000 -89.951546 -128.212341 382.234833
22 235.964890 -300.705902 0.000000 0.000000 -89.951546 -128.212341 382.234833
[Bip01_Head]
21 141.426544 137.416946 8.212432 2.448451 4.104366 -23.510275 197.363449
22 134.454605 132.681198 8.276057 2.180546 3.901896 -21.557665 189.078918
[eye_left_bone]
21 -24.626970 125.451866 -64.772606 0.000000 -90.000000 -99.840431 143.318359
22 -24.626970 125.451866 -64.772606 0.000000 -90.000000 -99.840431 143.318359
[eye_right_bone]
21 -24.626970 125.451866 64.327362 0.000000 -89.965736 80.156380 143.117676
22 -24.626970 125.451866 64.327362 0.000000 -89.965736 80.156380 143.117676
[L_forearm]
21 322.776093 0.000000 -0.000119 0.000737 -0.002229 -126.583710 322.776093
22 322.776093 0.000000 -0.000119 0.000735 -0.002229 -126.484024 322.776093
[L_front_hand]
21 241.149185 -0.042021 -3.300071 -178.667953 -1.835447 -27.422350 241.171753
22 241.149185 -0.042021 -3.300071 -178.667953 -1.835447 -27.422350 241.171753
[L_weapon_bone]
21 156.183838 0.000000 0.000000 0.000014 0.000007 0.000001 156.183838
22 156.183838 0.000000 0.000000 0.000014 0.000007 0.000001 156.183838
[L_front_hand01_01]
21 86.095154 20.947098 -0.655860 -0.366594 -0.477154 75.385574 88.609184
22 86.095154 20.947098 -0.655860 -0.366594 -0.477154 75.385574 88.609184
[L_front_hand02_01]
21 86.935165 -11.437475 24.513514 154.399796 -59.883835 -61.369587 91.046425
22 86.935165 -11.437475 24.513514 154.399796 -59.883835 -61.369587 91.046425
[L_front_hand03_01]
21 86.637497 -14.123976 -20.424902 -153.913849 58.118122 -62.702866 90.126129
22 86.637497 -14.123976 -20.424902 -153.913849 58.118122 -62.702866 90.126129
[L_front_hand01_02]
21 71.020905 -0.000179 0.000030 0.000334 -0.002323 -106.379684 71.020905
22 71.020905 -0.000179 0.000030 0.000334 -0.002323 -106.379684 71.020905
[L_front_hand02_02]
21 71.020927 -0.000119 0.000060 0.000334 -0.002323 -106.379684 71.020927
22 71.020927 -0.000119 0.000060 0.000334 -0.002323 -106.379684 71.020927
[L_front_hand03_02]
21 71.020905 -0.000060 0.000060 0.000334 -0.002323 -106.379684 71.020905
22 71.020905 -0.000060 0.000060 0.000334 -0.002323 -106.379684 71.020905
[R_forearm]
21 322.776428 -0.000060 0.000030 0.182256 0.112328 -122.352119 322.776428
22 322.776428 -0.000060 0.000030 0.182350 0.112175 -122.256142 322.776428
[R_front_hand]
21 238.847015 -0.006795 2.210259 -2.635298 -10.645461 -26.312506 238.857239
22 238.847015 -0.006795 2.210259 -2.635298 -10.645461 -26.312506 238.857239
[R_weapon_bone]
21 155.664093 0.002503 -0.000030 0.003487 0.001180 -90.988930 155.664078
22 155.664093 0.002503 -0.000030 0.003487 0.001180 -90.988930 155.664078
[R_front_hand01_01]
21 87.624611 14.231146 22.918642 -154.633499 -59.950619 61.746044 91.683487
22 87.624611 14.231146 22.918642 -154.633499 -59.950619 61.746044 91.683487
[R_front_hand02_01]
21 89.356956 14.367283 -19.491137 154.602661 58.302849 63.744389 92.579636
22 89.356956 14.367283 -19.491137 154.602661 58.302849 63.744389 92.579636
[R_front_hand03_01]
21 87.286232 -22.307278 -0.143439 0.162155 -0.423168 -75.767921 90.091743
22 87.286232 -22.307278 -0.143439 0.162155 -0.423168 -75.767921 90.091743
[R_front_hand01_02]
21 71.020905 0.000060 0.000119 0.002323 -0.000334 106.381714 71.020905
22 71.020905 0.000060 0.000119 0.002323 -0.000334 106.381714 71.020905
[R_front_hand02_02]
21 71.020844 -0.000030 -0.000119 0.002323 -0.000334 106.381714 71.020836
22 71.020844 -0.000030 -0.000119 0.002323 -0.000334 106.381714 71.020836
[R_front_hand03_02]
21 71.020905 0.000000 0.000030 0.002323 -0.000334 106.381714 71.020905
22 71.020905 0.000000 0.000030 0.002323 -0.000334 106.381714 71.020905
[null_rope01_connect]
21 328.732483 0.000000 -0.000238 174.789536 -40.578606 -142.150330 328.732483
22 328.732483 0.000000 -0.000238 171.281906 -35.725365 -138.493362 328.732483
[Rope1_Seg01]
21 0.000000 0.000000 0.000000 117.739906 -32.173836 148.749634 0.000000
22 0.000000 0.000000 0.000000 118.189255 -30.745722 146.986053 0.000000
[Rope1_Seg02]
21 139.999863 -0.000179 0.000000 -1.725902 -6.496237 -4.588365 139.999863
22 139.999863 -0.000179 0.000000 -1.647288 -5.732984 -3.878556 139.999863
[Rope1_Seg03]
21 139.999924 0.000060 -0.000060 -2.943275 -11.451862 -8.801709 139.999924
22 139.999924 0.000060 -0.000060 -2.879455 -10.010007 -7.315087 139.999924
[Rope1_Seg04]
21 139.999924 -0.000060 -0.000119 -3.341055 -21.270525 -21.646078 139.999924
22 139.999924 -0.000060 -0.000119 -4.366339 -20.344965 -18.850006 139.999924
[Rope1_Seg05]
21 139.999832 0.000119 -0.000060 -1.334674 -17.869577 -22.078682 139.999832
22 139.999832 0.000119 -0.000060 -2.103974 -20.686846 -25.399683 139.999832
[Rope1_Seg06]
21 139.999954 0.000119 -0.000060 -1.412182 -12.487494 -6.749114 139.999954
22 139.999954 0.000119 -0.000060 -1.536239 -11.310252 -7.800113 139.999954
[Rope1_Seg07]
21 139.999985 0.000060 0.000000 -2.596708 -14.754631 -7.054745 139.999985
22 139.999985 0.000060 0.000000 -2.388963 -13.621686 -6.841679 139.999985
[Rope1_Seg09]
21 121.602913 0.000119 -0.000089 -89.793175 -1.359789 0.847147 121.602913
22 121.602913 0.000119 -0.000089 -89.793175 -1.359789 0.847147 121.602913
[L_mid_hand01]
21 103.859421 1.038730 8.195221 109.056198 -40.604698 -13.201401 104.187431
22 103.859421 1.038730 8.195221 109.056198 -40.604698 -13.201401 104.187431
[L_mid_hand02]
21 105.572853 -4.139662 -10.864139 -146.713593 31.476528 -37.902313 106.211075
22 105.572853 -4.139662 -10.864139 -146.713593 31.476528 -37.902313 106.211075
[L_mid_hand03]
21 104.641464 17.579376 -3.913581 -14.267233 12.322316 43.898396 106.179977
22 104.641464 17.579376 -3.913581 -14.267233 12.322316 43.898396 106.179977
[null_rope02_connect]
21 328.732849 0.000179 -0.000119 174.946182 43.823505 -46.728790 328.732849
22 328.732849 0.000179 -0.000119 174.814392 39.949024 -47.363335 328.732849
[Rope2_Seg01]
21 0.000076 0.000112 0.000153 -49.547462 -29.457712 48.145058 0.000204
22 0.000076 0.000112 0.000153 -50.899342 -31.981655 50.038273 0.000204
[Rope2_Seg02]
21 139.999741 -0.000060 -0.000119 1.559184 4.661808 6.826133 139.999756
22 139.999741 -0.000060 -0.000119 1.795914 4.413584 6.543917 139.999756
[Rope2_Seg03]
21 140.000107 0.000030 0.000000 2.271165 7.673621 10.793781 140.000107
22 140.000107 0.000030 0.000000 2.758261 7.556091 10.654594 140.000107
[Rope2_Seg04]
21 139.999802 0.000000 -0.000060 2.527606 15.242896 15.325566 139.999802
22 139.999802 0.000000 -0.000060 3.634396 15.778748 16.527962 139.999802
[Rope2_Seg05]
21 139.999985 -0.000060 0.000119 0.135192 11.993920 17.609444 139.999985
22 139.999985 -0.000060 0.000119 0.927342 14.498231 18.551369 139.999985
[Rope2_Seg06]
21 139.999893 -0.000030 -0.000119 -0.369000 0.786996 26.974892 139.999893
22 139.999893 -0.000030 -0.000119 -0.467023 2.218707 25.109591 139.999893
[Rope2_Seg07]
21 139.999893 0.000060 -0.000060 3.071771 1.205870 21.917038 139.999893
22 139.999893 0.000060 -0.000060 2.222950 1.487549 21.225557 139.999893
[Rope2_Seg09]
21 121.338966 0.000089 -0.000060 33.793236 -1.359788 -0.847141 121.338966
22 121.338966 0.000089 -0.000060 33.793236 -1.359788 -0.847141 121.338966
[R_mid_hand01]
21 104.680779 11.144459 -10.335981 -37.204079 31.906813 37.576260 105.778534
22 104.680779 11.144459 -10.335981 -37.204067 31.906805 37.576252 105.778534
[R_mid_hand02]
21 104.070427 2.443552 8.231699 70.367462 -42.427391 14.067809 104.424065
22 104.070427 2.443552 8.231699 70.367462 -42.427391 14.067809 104.424065
[R_mid_hand03]
21 106.028137 -11.221827 -5.996406 -169.893616 12.226661 -47.211018 106.788818
22 106.028137 -11.221827 -5.996406 -169.893616 12.226658 -47.211018 106.788818
[spine02]
21 129.756927 0.001550 0.000119 -1.023899 -3.926965 6.770993 129.756927
22 129.756927 0.001550 0.000119 -1.023899 -3.926965 6.770993 129.756927
[spine03]
21 78.613846 0.087372 -4.898873 1.040680 4.146419 4.212375 78.766380
22 78.613846 0.087372 -4.898873 1.040681 4.146420 4.212376 78.766380
[pelvis]
21 169.435242 0.051022 0.000000 0.019518 -0.190233 -10.721436 169.435257
22 169.435242 0.051022 0.000000 0.019518 -0.190233 -10.721436 169.435257
[null_rope03_connect]
21 -1.257226 -2.466202 137.391083 -21.270773 -88.830139 107.896637 137.418976
22 -1.257226 -2.466202 137.391083 -21.270773 -88.830139 107.896637 137.418976
[null_rope04_connect]
21 -1.259640 -2.480268 -137.844437 -21.270773 -88.830139 107.896637 137.872513
22 -1.259640 -2.480268 -137.844437 -21.270773 -88.830139 107.896637 137.872513
[Rope3_Seg01]
21 0.000000 0.000000 0.000000 -152.154160 -30.471926 -38.253910 0.000000
22 0.000000 0.000000 0.000000 -151.455811 -34.635773 -45.005501 0.000000
[Rope3_Seg02]
21 139.999924 -0.000119 0.000060 6.119076 -4.929805 6.300127 139.999924
22 139.999924 -0.000119 0.000060 6.221084 -6.934449 7.112453 139.999924
[Rope3_Seg03]
21 139.999924 -0.000119 0.000119 7.556264 -6.739678 10.999583 139.999924
22 139.999924 -0.000119 0.000119 7.464674 -9.634815 12.626264 139.999924
[Rope3_Seg04]
21 139.999924 0.000119 0.000000 5.992647 -5.174068 20.063789 139.999924
22 139.999924 0.000119 0.000000 4.622952 -6.456915 20.830147 139.999924
[Rope3_Seg05]
21 139.999924 -0.000238 0.000060 2.010124 -3.878808 20.192451 139.999924
22 139.999924 -0.000238 0.000060 0.995052 -8.181520 16.825796 139.999924
[Rope3_Seg06]
21 139.999893 -0.000119 -0.000060 -4.392212 -20.305218 23.579365 139.999893
22 139.999893 -0.000119 -0.000060 -4.912901 -26.967943 23.888935 139.999893
[Rope3_Seg07]
21 139.999771 0.000060 -0.000119 -9.547399 -25.292933 25.494207 139.999771
22 139.999771 0.000060 -0.000119 -5.229429 -23.646667 21.055326 139.999771
[Rope3_Seg08]
21 139.999985 -0.000060 0.000000 -2.490377 -9.485315 9.311649 139.999985
22 139.999985 -0.000060 0.000000 -0.904145 -8.426735 7.696271 139.999985
[Rope3_Seg09]
21 90.185997 -0.000179 -0.000060 89.793228 -1.359877 -0.847183 90.185997
22 90.185997 -0.000179 -0.000060 89.793228 -1.359877 -0.847183 90.185997
[R_rear_hand01]
21 103.366196 -6.073594 -10.757982 -164.755127 19.627697 -40.352161 104.101845
22 103.366196 -6.073594 -10.757982 -164.755127 19.627697 -40.352161 104.101845
[R_rear_hand02]
21 100.509819 12.039542 -7.992327 -30.792652 24.782448 38.141541 101.543350
22 100.509819 12.039542 -7.992327 -30.792652 24.782448 38.141541 101.543350
[R_rear_hand03]
21 101.539970 5.215704 5.435467 82.448349 -41.048256 8.840378 101.819031
22 101.539970 5.215704 5.435467 82.448349 -41.048256 8.840378 101.819031
[Rope4_Seg01]
21 0.000006 -0.000043 -0.000020 64.902771 -45.045998 -118.748657 0.000048
22 0.000007 -0.000041 -0.000013 62.980579 -45.505875 -115.761078 0.000044
[Rope4_Seg02]
21 139.999985 0.000060 0.000119 -9.497430 6.483684 -18.615978 139.999985
22 139.999985 0.000060 0.000119 -7.393073 6.065886 -16.022589 139.999985
[Rope4_Seg03]
21 139.999924 0.000000 -0.000238 -12.683873 12.267837 -23.330502 139.999924
22 139.999924 0.000000 -0.000238 -11.139618 11.636979 -22.563751 139.999924
[Rope4_Seg04]
21 139.999985 0.000000 0.000119 -5.935833 11.508824 -12.889730 139.999985
22 139.999985 0.000000 0.000119 -6.460041 13.118658 -15.134651 139.999985
[Rope4_Seg05]
21 139.999802 -0.000060 -0.000119 -3.075360 7.936132 -9.898932 139.999802
22 139.999802 -0.000060 -0.000119 -2.800014 8.103178 -10.765592 139.999802
[Rope4_Seg06]
21 139.999924 0.000000 0.000060 -7.413191 17.832668 -26.300640 139.999924
22 139.999924 0.000000 0.000060 -6.566206 15.436163 -27.127348 139.999924
[Rope4_Seg07]
21 139.999802 0.000000 0.000000 -4.874935 23.240660 -31.635677 139.999802
22 139.999802 0.000000 0.000000 -6.109201 20.642357 -34.105186 139.999802
[Rope4_Seg08]
21 139.999924 0.000000 0.000119 -0.131449 8.849071 -11.346786 139.999924
22 139.999924 0.000000 0.000119 -1.110740 8.152832 -11.859710 139.999924
[Rope4_Seg09]
21 90.185791 0.000060 0.000060 -135.617828 2.228885 0.850567 90.185791
22 90.185791 0.000060 0.000060 -135.617828 2.228885 0.850567 90.185791
[L_rear_hand01]
21 101.696655 -8.392275 -7.654577 -31.684452 -23.583008 144.025742 102.329041
22 101.696655 -8.392275 -7.654577 -31.684452 -23.583008 144.025742 102.329041
[L_rear_hand02]
21 102.726799 -1.568258 5.773216 82.701553 38.753956 171.553619 102.900848
22 102.726799 -1.568258 5.773216 82.701553 38.753956 171.553619 102.900848
[L_rear_hand03]
21 104.552910 9.721220 -10.420293 -163.975403 -19.004421 -142.009338 105.519653
22 104.552910 9.721220 -10.420293 -163.975403 -19.004421 -142.009338 105.519653
